<?xml version="1.0" encoding="utf-8"?>
<!-- Generator: Adobe Illustrator 26.0.2, SVG Export Plug-In . SVG Version: 6.00 Build 0)  -->
<svg version="1.1" id="Layer_1" xmlns="http://www.w3.org/2000/svg" xmlns:xlink="http://www.w3.org/1999/xlink" x="0px" y="0px"
	 viewBox="0 0 1940.5 2507.3" style="enable-background:new 0 0 1940.5 2507.3;" xml:space="preserve">
<style type="text/css">
	.st0{fill:#FFFFFF;}
	.st1{fill:none;}
</style>
<g>
	<g>
		<g>
			<g>
				<path class="st0" d="M232.7,2151.7H118.4v14.5h113.8C232.4,2161.2,232.5,2156.3,232.7,2151.7z"/>
				<polygon class="st0" points="169.7,2099.2 179.7,2128.3 199.6,2128.3 188.9,2099.2 				"/>
				<rect x="1686.6" y="2151.7" class="st0" width="21.9" height="14.5"/>
				<path class="st0" d="M1783.9,2054.6h-29.7v-172.1H73.5v172.1H0L40.8,2173h32.7v334.2h329.5h11.8H588h9.6H1753v-334.5l73.3-0.1
					L1783.9,2054.6z"/>
				<rect x="647.1" y="2349.3" width="21.1" height="7.3"/>
				<rect x="766.9" y="2250.1" width="36.7" height="12.1"/>
				<polygon points="1030.3,2333.4 1041.9,2333.4 1054.8,2333.4 1054.8,2326.1 1041.9,2326.1 1030.3,2326.1 				"/>
				<path d="M1641.5,2069.3c6.4,0,11.9-2.3,16.5-6.9c4.6-4.6,6.8-10.2,6.8-16.7c0-6.3-2.3-11.8-6.8-16.4c-4.6-4.7-10.1-7.1-16.5-7.1
					c-6.5,0-12,2.4-16.6,7.1c-4.5,4.6-6.8,10.1-6.8,16.4c0,6.6,2.3,12.1,6.9,16.7C1629.6,2067,1635.1,2069.3,1641.5,2069.3z
					 M1629.1,2030.1c1.9,0,4.9,0,8.7,0c3.9,0,6,0,6.5,0.1c2.5,0.2,4.5,0.7,6.2,1.6c2.8,1.5,4.2,4,4.2,7.5c0,2.6-0.7,4.5-2.2,5.7
					c-1.5,1.2-3.3,1.9-5.4,2.1c2,0.4,3.5,1,4.5,1.8c1.8,1.5,2.8,3.8,2.8,7v2.8c0,0.3,0,0.6,0.1,0.9c0,0.3,0.1,0.6,0.2,0.9l0.3,0.9
					h-7.8c-0.3-1-0.4-2.4-0.5-4.3c-0.1-1.9-0.3-3.2-0.5-3.8c-0.4-1.1-1.2-1.9-2.3-2.3c-0.6-0.3-1.5-0.4-2.8-0.5l-1.8-0.1h-1.7v11.1
					h-8.2V2030.1z"/>
				<path d="M1645,2043.6c1.1-0.8,1.6-2,1.6-3.7c0-1.7-0.8-2.9-2.5-3.6c-1.1-0.4-2.7-0.7-4.8-0.7h-2v9.1h3.2
					C1642.4,2044.7,1643.9,2044.3,1645,2043.6z"/>
				<rect x="1570.5" y="2221.7" width="24.9" height="9.1"/>
				<path d="M1313.5,2088.5h34.2v-0.5c0-1.7-0.8-4.7-2.5-9.1h-31.7V2088.5z"/>
				<polygon points="1716.5,2128.3 1708.5,2106.6 1708.5,2128.3 				"/>
				<polygon points="60,2099.2 69.9,2128.3 118.4,2128.3 118.4,2099.2 				"/>
				<rect x="103.5" y="2151.7" width="14.9" height="14.5"/>
				<rect x="1708.5" y="2151.7" width="20.5" height="14.5"/>
				<polyline points="422.7,2462.3 412.1,2491.4 441.1,2491.4 451.8,2462.3 				"/>
				<polygon points="450.6,2491.4 479.6,2491.4 490.3,2462.3 467.6,2462.3 461.2,2462.3 				"/>
				<polygon points="489,2491.4 518.1,2491.4 528.8,2462.3 508.3,2462.3 499.7,2462.3 				"/>
				<polygon points="527.5,2491.4 556.6,2491.4 567.3,2462.3 550.3,2462.3 538.1,2462.3 				"/>
				<polygon points="566,2491.4 595,2491.4 605.7,2462.3 587.5,2462.3 576.6,2462.3 				"/>
				<path class="st0" d="M242.3,2166.2v-14.5h-9.5c-0.2,4.6-0.4,9.5-0.5,14.5H242.3z"/>
				<g>
					<path class="st1" d="M1641.5,2069.3c6.4,0,11.9-2.3,16.5-6.9c4.6-4.6,6.8-10.2,6.8-16.7c0-6.3-2.3-11.8-6.8-16.4
						c-4.6-4.7-10.1-7.1-16.5-7.1c-6.5,0-12,2.4-16.6,7.1c-4.5,4.6-6.8,10.1-6.8,16.4c0,6.6,2.3,12.1,6.9,16.7
						C1629.6,2067,1635.1,2069.3,1641.5,2069.3z M1629.1,2030.1c1.9,0,4.9,0,8.7,0c3.9,0,6,0,6.5,0.1c2.5,0.2,4.5,0.7,6.2,1.6
						c2.8,1.5,4.2,4,4.2,7.5c0,2.6-0.7,4.5-2.2,5.7c-1.5,1.2-3.3,1.9-5.4,2.1c2,0.4,3.5,1,4.5,1.8c1.8,1.5,2.8,3.8,2.8,7v2.8
						c0,0.3,0,0.6,0.1,0.9c0,0.3,0.1,0.6,0.2,0.9l0.3,0.9h-7.8c-0.3-1-0.4-2.4-0.5-4.3c-0.1-1.9-0.3-3.2-0.5-3.8
						c-0.4-1.1-1.2-1.9-2.3-2.3c-0.6-0.3-1.5-0.4-2.8-0.5l-1.8-0.1h-1.7v11.1h-8.2V2030.1z"/>
					<polygon class="st1" points="612.6,2073.7 662.2,2073.7 660.4,2060.9 612.6,2060.9 					"/>
					<rect x="300" y="2370.2" class="st1" width="74" height="7"/>
					<path class="st1" d="M1645,2043.6c1.1-0.8,1.6-2,1.6-3.7c0-1.7-0.8-2.9-2.5-3.6c-1.1-0.4-2.7-0.7-4.8-0.7h-2v9.1h3.2
						C1642.4,2044.7,1643.9,2044.3,1645,2043.6z"/>
					<polygon class="st1" points="169.7,2099.2 179.7,2128.3 199.6,2128.3 188.9,2099.2 					"/>
					<path class="st1" d="M809.1,2078.5c-19,46.3-31.5,80.6-37.5,102.9h-0.5v-0.8c-4.9-18.5-13.8-43.5-26.7-75
						c-12.1-24.2-18.1-53.6-18.1-88.3h-70.7c0,2.5,1.6,17,4.8,43.5h32v12.8h-29.7c0,4.9,5.4,19.4,16.4,43.5
						c26,60.2,39.9,91.4,41.8,93.6h22.4v9.1h-20.6v99.9h11.1v56.1c0,0.8,0.3,1.3,1,1.3h69v-115h29.7v-12.1h-29.7v-62.2h24.2l40-90.6
						c6-17.1,11.1-43.8,15.1-80h-66.4C816.4,2036.1,814,2056.5,809.1,2078.5z"/>
					<path class="st1" d="M668.2,2317h-107v-153h14.1v-148.2h-71.7V2271h18.1v10.8h-18.1v80.8c0,2,0.2,5,0.5,9.1H599v5.5h69.2v-20.6
						h26.2v-7.3h-26.2V2317z"/>
					<polygon class="st1" points="1612.5,2099.2 1623.1,2128.3 1656.8,2128.3 1646.1,2099.2 					"/>
					<polygon class="st1" points="1656,2099.2 1666.7,2128.3 1686.6,2128.3 1675.9,2099.2 					"/>
					<path class="st1" d="M900.5,2076.7h70.5v299.2c0,0.8,0.4,1.3,1.3,1.3h64.2v-6.8H1023v-9.6h18.9v-27.4h12.9h18.8v-7.3h-18.8
						h-12.9v-249.4h70v-60.1H900.5V2076.7z"/>
					<path class="st1" d="M1595.4,2017.3H1535v143.4h-72v-143.4h-71.5v61.7h-46.4c0-2.5-1.9-7.5-5.8-15.1
						c-12.9-31.5-44.5-47.3-94.9-47.3c-39.3,0-68.8,9.3-88.6,27.9c-11.1,11.7-19.2,25.8-24.4,42.3c-5.2,14.3-7.8,48.8-7.8,103.7
						c0,12.3,0.3,28.8,0.8,49.6h-11.6v51.1h21.6v41.3h51.1v12.1h-34v27.9h51.1v4.8h50.3v-4.8h64.7v-55.9h31v-90.9h-55.9v90.9h-96.9
						v-87.3h-23.1v-11.3h23.1l0.8-7.3v-49.1c0-24.2,1.8-43.5,5.3-58.1c4.5-17.4,17-26.2,37.5-26.2h7.6c27.3,0,41,20,41,59.9v0.5
						c44.1-2.3,66.2-3.9,66.2-4.8c-1.2-15.4-3.2-30-6-43.5v-0.7h43.4v101.2h10.3v187.5h59.9c0.8,0,1.3-0.4,1.3-1.3v-155.3h72v155.3
						c0,0.8,0.3,1.3,1,1.3h59.4v-146.5h48v-9.1h-48V2017.3z"/>
					<path d="M1708.5,2106.6v-179.1H118.4v171.7h45l10.7,29.1h-55.7v23.4h114.3c1.8-39.3,5.5-64.4,11.1-75.3
						c2.5-10.1,9.5-21,20.9-33c16.9-17.4,45.2-26.2,84.8-26.2h0.8c53.7,0,86.5,17.5,98.4,52.6c5.5,12.9,8.3,31.2,8.3,54.9l-58.4,7.8
						l-0.8-1.3v-1.3c0-28.3-9.6-45.2-28.7-50.6c-5.7-1.7-12.8-2.7-21.4-3c-20.6,0-34,11.2-40,33.5c-3.5,14.8-5.3,32.2-5.3,52.3v28.2
						c0,32.7,0.4,57.4,1.3,74h14.8v50.1h71.5v-85.8h-45.3v-46h136.1v10.1h-17.9v53.1h-36.5v16.9h17.9v101.9H249.9v-54.4h-22.1
						l0.1-10.1h22v-20.4h-34v-43.5H232c-0.3-12.8-0.5-20-0.5-21.9c0-17.7,0.2-33.7,0.7-48.1H118.4v296.1h298h6.3l10.7-29h29
						l-10.7,29h7.2h2.3l10.7-29h29l-10.7,29H506h-6.3l10.7-29h29l-10.7,29h9.4h0l10.6-29h29l-10.7,29h7.4h2.1l10.7-29h29l-10.7,29
						h1102.9v-296.1h-21.9v-14.5h21.9v-23.4h-11.2l-10.7-29.1h19.2L1708.5,2106.6z M179.7,2128.3l-9.9-29.1h19.2l10.7,29.1H179.7z
						 M374,2377.2h-74v-7h74V2377.2z M1622,2025.1c5.5-5.1,12-7.7,19.5-7.7c7.8,0,14.5,2.8,20,8.3c5.5,5.5,8.3,12.2,8.3,20
						c0,8-2.8,14.8-8.5,20.3c-5.5,5.3-12.1,8-19.8,8c-8,0-14.7-2.7-20.1-8.2c-5.5-5.5-8.2-12.2-8.2-20.1
						C1613.2,2037.4,1616.2,2030.6,1622,2025.1z M694.4,2356.6h-26.2v20.6H599v-5.5h-94.9c-0.3-4-0.5-7-0.5-9.1v-80.8h18.1V2271
						h-18.1v-255.2h71.7V2164h-14.1v153h107v32.2h26.2V2356.6z M867.8,2097.3l-40,90.6h-24.2v62.2h29.7v12.1h-29.7v115h-69
						c-0.7,0-1-0.4-1-1.3v-56.1h-11.1v-99.9h20.6v-9.1h-22.4c-1.8-2.2-15.8-33.4-41.8-93.6c-10.9-24.2-16.4-38.7-16.4-43.5h29.7
						v-12.8h-32l1.8,12.8h-49.6v-12.8h47.8c-3.2-26.5-4.8-41-4.8-43.5h70.7c0,34.7,6,64.2,18.1,88.3c12.9,31.5,21.8,56.5,26.7,75
						v0.8h0.5c6-22.3,18.5-56.6,37.5-102.9c4.9-22,7.3-42.4,7.3-61.1h66.4C878.8,2053.5,873.8,2080.2,867.8,2097.3z M1111.8,2076.7
						h-70v249.4h12.9h18.8v7.3h-18.8h-12.9v27.4H1023v9.6h13.3v6.8h-64.2c-0.8,0-1.3-0.4-1.3-1.3v-299.2h-70.5v-60.1h211.4V2076.7z
						 M1643.5,2230.7h-48v146.5H1536c-0.7,0-1-0.4-1-1.3v-155.3h-72v155.3c0,0.8-0.4,1.3-1.3,1.3h-59.9v-187.5h-10.3v-101.2h-43.4
						v0.7c2.9,13.6,4.9,28.1,6,43.5c0,0.8-22.1,2.4-66.2,4.8v-0.5c0-39.9-13.7-59.9-41-59.9h-7.6c-20.5,0-33,8.7-37.5,26.2
						c-3.5,14.6-5.3,34-5.3,58.1v49.1l-0.8,7.3h-23.1v11.3h23.1v87.3h96.9v-90.9h55.9v90.9h-31v55.9h-64.7v4.8h-50.3v-4.8h-51.1
						v-27.9h34v-12.1h-51.1v-41.3h-21.6V2240h11.6c-0.5-20.8-0.8-37.3-0.8-49.6c0-54.9,2.6-89.4,7.8-103.7
						c5.2-16.4,13.3-30.5,24.4-42.3c19.8-18.6,49.3-27.9,88.6-27.9c50.3,0,82,15.8,94.9,47.3c3.9,7.6,5.8,12.6,5.8,15.1h46.4v-61.7
						h71.5v143.4h72v-143.4h60.4v204.4h48V2230.7z M1623.1,2128.3l-10.6-29.1h33.6l10.7,29.1H1623.1z M1666.7,2128.3l-10.7-29.1
						h19.9l10.7,29.1H1666.7z"/>
				</g>
			</g>
		</g>
		<polygon points="1715.7,2099.2 1726.4,2128.3 1764.9,2128.3 1754.2,2099.2 		"/>
	</g>
	<g>
		<path class="st0" d="M914,1812.4l227.3-68.2c176.6-49,357.8-117.8,587.3-223l28.5-13.1l-2.4-31.3c-3.5-45.5-10.8-92.6-22.3-142.8
			h41.2v-111.9h-71.8c-12-38.1-25.2-75.9-39.5-115.2h25.5V957.2h-46.3v-26.7h-36c0.4-6,1.3-12.5,2.5-19.8
			c14.4-82.9,54-156.2,96-233.8c0.9-1.6,1.7-3.2,2.6-4.8h104.4l1.4,0l0-106.9l-48.6,0c5.8-10.8,11.6-21.7,17.4-32.5h137.7l-19.5-53
			l41.3,0L1895,357.1h-20.4l54.5-100.6l-109,4.5l0,0c-166.3,5.6-338.1,30.9-511.1,75.3c-57.6,14.8-114.1,33.4-168.8,51.4
			c-40.4,13.3-82.2,27.1-123.5,39c-33.2,9.6-68.3,19.2-102,22.7c-0.8,0.1-1.5,0.2-2.3,0.2c-21.6,0-43.1-2.5-64-7.6
			c-36.6-9-66.2-29.3-100.6-52.8c-5.7-3.9-11.7-8-17.8-12.1l-29.7-20c-53.5-36-108.8-73.2-163.3-109.7c-29-19.4-58.5-39.1-87-58.1
			c-13.2-8.8-26.4-17.6-39.7-26.4C331.1,110,225.7,41.1,224.7,40.4L162.8,0l-7.5,73.5c-22.9,223.6-10.1,419.1,4.7,543.7
			c15.3,129.5,35.5,210.2,38.1,220.3c5.7,25.8,13.5,52.4,24.6,83.6c4.8,13.5,4.2,19.2,1,27.4l-7.4,20.5H51.2v106.9h126.7l-27,75
			l-0.2,0.5c-1,2.8-1.9,5.6-2.9,8.5H51.2l24.9,67.4H6.3l52.2,141.6h30.7c-7.1,35.5-12.1,71.6-14.8,107.7l-2.4,31.3l28.5,13.1
			c229.5,105.3,410.7,174.1,587.3,223L914,1812.4z M1696.7,499.6 M1755.3,389.8"/>
		<g>
			<g>
				<polygon points="145.3,1207.4 118.7,1207.4 133,1246.2 159.5,1246.2 				"/>
				<g>
					<path class="st1" d="M592.7,807c-121.9-72.6-129.7,95.3-129.7,95.3s9.3-143.7,346.6,112.9C809.6,1015.3,714.6,879.7,592.7,807z
						"/>
					<path class="st1" d="M1036.2,1042.4c27.5,19.2,58.5,32.1,90.4,37.7c28.4,5,57.5,4.2,85.8-3c44.7-11.5,87.1-39.2,120.5-86.2
						C1332.9,990.9,1126.1,1090.4,1036.2,1042.4z"/>
					<path class="st1" d="M701.4,545.9l-2.5-3.4c0,0-50.4-83.7-358.4-233.5c-11.7-5.7-23.8-11.5-36.4-17.5l-1,51
						c-0.4,163.7,27.2,321.3,91,474.7c0,0,0,0,0,0c0,0,0,0,0,0S515.6,612.6,701.4,545.9z"/>
					<path class="st1" d="M1476.6,611.8h98.2c22.3-51.1,47.2-114.5,74.8-193.2c-172.6,17.3-324.4,56.1-476.8,135.9
						c0,0,190.3,75.7,282.3,259.3c19.6-16.9,57.5-62.7,112.9-186.6h-91.5V611.8z"/>
					<path class="st1" d="M1307.4,882.3c0,0-229.9,121-290.5,123.3c0,0,53.8,27.3,160.2-14.8c80.1-31.8,219.4-87.2,263.8-59.8
						C1440.8,931,1371.5,855.9,1307.4,882.3z"/>
					<polygon points="1816.5,457.1 1827.8,487.7 1848.8,487.7 1837.6,457.1 					"/>
					<path d="M1786.6,425.8c-1.5,2.8-3,5.6-4.5,8.4h85.1l-11.3-30.7h-57.5C1794.5,410.9,1790.5,418.3,1786.6,425.8z"/>
					<path d="M1769.9,457.1c-5.5,10.2-10.9,20.4-16.4,30.7h66.8l-11.3-30.7H1769.9z"/>
					<g>
						<path class="st1" d="M592.7,807c-121.9-72.6-129.7,95.3-129.7,95.3s9.3-143.7,346.6,112.9C809.6,1015.3,714.6,879.7,592.7,807
							z"/>
						<path class="st1" d="M1036.2,1042.4c27.5,19.2,58.5,32.1,90.4,37.7c28.4,5,57.5,4.2,85.8-3c44.7-11.5,87.1-39.2,120.5-86.2
							C1332.9,990.9,1126.1,1090.4,1036.2,1042.4z"/>
						<path class="st1" d="M1476.6,611.8h98.2c22.3-51.1,47.2-114.5,74.8-193.2c-172.6,17.3-324.4,56.1-476.8,135.9
							c0,0,190.3,75.7,282.3,259.3c19.6-16.9,57.5-62.7,112.9-186.6h-91.5V611.8z"/>
						<path class="st1" d="M701.4,545.9l-2.5-3.4c0,0-50.4-83.7-358.4-233.5c-11.7-5.7-23.8-11.5-36.4-17.5l-1,51
							c-0.4,163.7,27.2,321.3,91,474.7c0,0,0,0,0,0c0,0,0,0,0,0S515.6,612.6,701.4,545.9z"/>
						<path class="st1" d="M1177,990.8c80.1-31.8,219.4-87.2,263.8-59.8c0,0-69.3-75.2-133.4-48.7c0,0-229.9,121-290.5,123.3
							C1016.9,1005.7,1070.7,1033,1177,990.8z"/>
						<g>
							<path class="st1" d="M701.4,545.9l-2.5-3.4c0,0-50.4-83.7-358.4-233.5c-11.7-5.7-23.8-11.5-36.4-17.5l-1,51
								c-0.4,163.7,27.2,321.3,91,474.7c0,0,0,0,0,0v0C394,817.2,515.6,612.6,701.4,545.9z"/>
							<path class="st1" d="M592.7,807c-121.9-72.6-129.7,95.3-129.7,95.3s9.3-143.7,346.6,112.9
								C809.5,1015.3,714.6,879.7,592.7,807z"/>
							<path class="st1" d="M1177,990.8c80.1-31.8,219.4-87.2,263.8-59.8c0,0-69.3-75.2-133.4-48.7c0,0-229.9,121-290.5,123.3
								C1016.9,1005.7,1070.7,1033,1177,990.8z"/>
							<path class="st1" d="M1036.2,1042.4c27.5,19.2,58.5,32.1,90.4,37.7c28.4,5,57.5,4.2,85.8-3c44.7-11.5,87.1-39.2,120.5-86.2
								C1332.9,990.9,1126.1,1090.4,1036.2,1042.4z"/>
							<path class="st1" d="M1476.6,611.8h98.2c22.3-51.1,47.2-114.5,74.8-193.2c-172.6,17.3-324.4,56.1-476.8,135.9
								c0,0,190.3,75.7,282.3,259.3c19.6-16.9,57.5-62.7,112.9-186.6h-91.5V611.8z"/>
						</g>
					</g>
				</g>
			</g>
			<path d="M1325.5,1247.2c-2.1,10.8-5.2,17.3-5.2,17.4c1.4-2.9-0.5-8.9-0.9-12c-0.7-5.2-1.8-10.3-3.8-15.2c-2-4.9-6.4-9.5-11.7-9.6
				c-2.9-0.1-5.6,1.2-8.3,2.4c-9.1,4.3-18.3,8.4-27.3,12.9c-14,6.5-26,11.9-26,11.9c11.4-10.6,22.6-21.4,35-30.8
				c6.4-4.8,13-9.3,20-13.1c6.3-3.4,19.8-11.9,26.7-5.7c4.6,4,3.6,15.1,3.6,20.6C1327.6,1233.2,1326.9,1240.3,1325.5,1247.2z
				 M242.9,1321.9l-16.9-46.2h32.7l16.9,46.2H242.9z M290.3,1321.9l-17-46.2h32.7l16.9,46.2H290.3z"/>
			<line x1="905" y1="1529.9" x2="913.4" y2="1530"/>
			<path d="M1568.1,627.1c-55.4,123.9-93.2,169.7-112.9,186.6c-92-183.6-282.3-259.3-282.3-259.3
				c152.4-79.8,304.1-118.6,476.8-135.9c-27.6,78.7-52.6,142.1-74.8,193.2h-98.2v15.3H1568.1c2.2-5,4.5-10.1,6.7-15.3
				c0,0,23.1,0,23.1,0h89.4c6.5-12.2,13-24.3,19.5-36.5c15.6-29.2,31.2-58.4,46.7-87.6h-23.2l-11.2-30.7h50.8
				c4.1-7.6,8.1-15.3,12.2-22.9h-4.9l-11.3-30.7h32.5c0,0,52.2-98.4,52.2-98.4c-178.9,3.5-357.4,30.2-531,74.7
				c-98.6,25.3-193.2,62-291,90c-35.8,10.3-72.7,20.4-109.9,24.2c-1.7,0.2-3.3,0.3-5,0.5c-25.8,0.2-51.6-2.8-76.6-8.9
				c-51.6-12.6-89-41.8-132.7-71.2c-64.3-43.2-128.6-86.5-193-129.7c-42.1-28.2-84.4-56.3-126.6-84.5
				c-80-53.4-185.3-122.2-185.3-122.2c-43.5,425,41.8,749,41.8,749c5.9,26.9,14,53.1,23.2,79c7.3,20.4,8.8,37.5,0.5,58.8l-17.8,49.6
				H95.8v15.3h146l-49.1,136.5c-4.7,13.6-9.2,27.3-13.7,41h-26.4l14.2,38.7c-2.9,9.7-5.8,19.3-8.5,29H75.1l17,46.2h54.3
				c3.9-15.5,7.6-30.9,12-46.2l52.7,0l10.6-28.9l-54.8-0.1c3.9-12.9,8-25.8,12.2-38.7c0,0,53.1,0,53.1,0c1.3-4,2.6-8,3.9-12
				c1.9-6,3.8-12,5.7-18l19.1-51.6l5.4-14.5l0.8-2.1c1.8-0.1,3.6-0.2,5.4-0.2c3.6-0.1,7.3-0.2,11-0.2c1.8,0,3.7,0,5.5,0
				c1.4,0,2.8,0,4.1,0.1c1.6,0,3.1,0.1,4.7,0.1c1.5,0,3,0.1,4.5,0.2c3,0.1,6,0.3,9.1,0.5c85.4,5.3,178,34,236.5,55.1
				c1.6,0.6,3.1,1.1,4.6,1.7c1.4,0.5,2.7,1,4,1.5c0.9,0.3,1.7,0.6,2.6,1c0.2,0.1,0.4,0.2,0.7,0.2c2.2,0.8,4.2,1.6,6.3,2.4
				c15.7,6,27.6,10.8,34.5,13.8c1.6,0.7,2.9,1.2,3.9,1.7c0.3,0.1,0.7,0.3,0.9,0.4c0.4,0.2,0.7,0.3,0.9,0.4c0,0,0.1,0,0.1,0
				c0.2,0.1,0.3,0.1,0.4,0.2c0.3,0.1,0.5,0.2,0.5,0.2c-4.1-7.2-10.2-14.4-17.5-21.4c-6.9-6.6-14.8-12.9-22.9-18.9
				c-0.5-0.4-1.1-0.8-1.6-1.2c-0.8-0.5-1.5-1.1-2.3-1.6c-10.9-7.7-22.1-14.6-31.7-20.2c-0.4-0.2-0.7-0.4-1.1-0.6
				c-0.6-0.3-1.2-0.7-1.7-1c0,0-0.1,0-0.1,0c-2.8-1.6-5.4-3-7.8-4.4c0,0,0,0,0,0c0,0-0.1,0-0.1-0.1c-0.6-0.3-1.2-0.6-1.8-1
				c-4-2.2-7.4-3.9-9.8-5.2c-0.6-0.3-1.1-0.6-1.6-0.8c-0.2-0.1-0.5-0.2-0.7-0.3c-1.3-0.7-2.1-1-2.1-1
				c226.8,32.1,280.6,223.4,280.6,223.4c0.8-54.8-14.6-88.2-14.6-88.2c1.4,1.3,2.9,2.9,4.5,4.7c0.6,0.7,1.1,1.4,1.7,2.1
				c0.5,0.6,0.9,1.2,1.4,1.8c0.3,0.4,0.6,0.9,1,1.3c0.3,0.4,0.7,0.9,1,1.4c0.7,1,1.5,2.1,2.2,3.2c1.3,1.9,2.5,3.8,3.8,5.9
				c0.8,1.3,1.6,2.6,2.4,3.9c0.3,0.5,0.6,1,0.9,1.5c0.8,1.4,1.7,2.9,2.6,4.4c0.1,0.2,0.2,0.4,0.3,0.6c0.7,1.3,1.5,2.6,2.2,4
				c0.5,0.9,0.9,1.7,1.4,2.6c3.9,7.3,7.7,15.1,11.3,23.1c5.1,11.5,9.8,23.2,13.3,34c0.3,1.1,0.7,2.1,1,3.2c1,3.1,1.9,6.2,2.7,9.1
				c1,3.7,1.8,7.4,2.4,11c0,0.2,0.1,0.3,0.1,0.5c0.1,0.6,0.2,1.3,0.3,1.9c0.2,1.4,0.4,2.8,0.6,4.3c0,0.5,0.1,1,0.2,1.4
				c0.1,1,0.2,2,0.3,3c0.3,4,0.5,8.1,0.5,12.1c0,0.8,0,1.6,0,2.4c0,1.7-0.1,3.4-0.2,5.1c-0.1,1.1-0.1,2.2-0.2,3.3c0,0.2,0,0.3,0,0.5
				c0,0.2,0,0.4,0,0.7c0,1.6-0.1,3.3-0.3,4.9c-0.3,1.9-0.5,3.8-0.7,5.6c-2.5,21.1-7.5,42.1-10.3,63.4c32.3,11.1,58.7,31,84.5,52
				c0.4,0.4,0.9,0.8,1.3,1.2c0.3,0.3,0.5,0.6,0.7,0.9c0.4,0.5,0.8,1,1.1,1.6c0.4,0.6,0.7,1.3,1.1,2c0.1,0.1,0.1,0.3,0.2,0.4
				l1.1,35.3l-113.9,17.4c-60.7-131-57.8-248-57.8-248l-23.4,31.9c0,1.8-0.1,11.7-0.1,13.6c-30.6-7.7-182.5-39.2-355.9,41.9
				c0,0,231.5-49.4,356.4-14.7c0.8,16.5,2.5,32.3,4.7,47.4c-23.7-2-129.8-5.9-238.2,67.5c0,0,151.9-58.5,241.4-49
				c3.4,17.8,7.5,34.4,12,49.5c-20.1,2.1-88.5,13.3-150.3,72.5c0,0,92.7-55,154.1-60.4c18.4,56.4,40.7,90,40.7,90
				c12.7-5.8,30.2-10,30.2-10c42.8,55.5,103.1,54.4,108,54.8c4.9-0.6,65.3,0.7,108-54.8c0,0,17.5,4.2,30.2,10c0,0,22.2-33.5,40.7-90
				c61.4,5.3,154.1,60.4,154.1,60.4c-61.8-59.2-130.3-70.4-150.3-72.5c4.5-15.1,8.7-31.7,12-49.5c89.5-9.5,241.4,49,241.4,49
				c-108.4-73.4-214.5-69.5-238.2-67.5c2.2-15,3.9-30.9,4.7-47.4c124.9-34.7,356.4,14.7,356.4,14.7
				c-173.4-81.1-325.3-49.6-355.9-41.9c0,0,0.6-55.4,51.4-57.2c9.9-0.4,33.1,0,42.9-0.7c15.1-1.1,30.2-3.6,44.2-9.3
				c9.4-3.8,18.4-9,25.6-16.2c0.3-0.3,0.6-0.7,0.9-1c1.4-1.4,2.7-2.9,3.9-4.5c1-1.2,1.9-2.5,2.7-3.8c0.8-1.3,1.6-2.6,2.3-4
				c0.3-0.6,0.6-1.2,0.9-1.8c0.3-0.7,0.6-1.3,0.9-2c0.1-0.3,0.3-0.7,0.4-1c2.2-5.4,3.6-11.4,4.2-18.2c0.1-1,0.1-2.1,0.2-3.1
				c0.1-2.6,0.1-5.1-0.3-7.7c-14.2,16.1-22.3,32.1-44.9,40.9c-20.2,7.8-42.4,8.8-64,7.2c-13.6-1-23.4-1.5-40.8-2.3
				c0,0-54.1-4.1-54.1,39.5c0,0,2.9,117-57.8,248L922,1565.7c0,0,0.9-35.3,1-35.4c0,0,0,0,0,0c0.4-0.8,0.8-1.6,1.2-2.4
				c0.3-0.6,0.7-1.1,1.1-1.6c0.2-0.3,0.5-0.6,0.7-0.9c0.4-0.5,0.8-0.9,1.3-1.2c25.8-20.9,52.2-40.9,84.5-52
				c-2.8-21.3-7.8-42.3-10.3-63.4c-0.2-1.9-0.4-3.8-0.7-5.7c-0.3-1.6-0.3-3.3-0.3-4.9c0-0.2,0-0.4,0-0.6c0-0.2,0-0.3,0-0.5
				c-0.1-1.1-0.1-2.2-0.2-3.3c-0.1-1.7-0.1-3.4-0.2-5.1c0-0.8,0-1.6,0-2.4c0-4,0.1-8,0.5-12.1c0.1-1,0.2-2,0.3-3
				c0.1-0.6,0.1-1.2,0.2-1.7c0.1-0.8,0.1-1.5,0.3-2.3c0.2-1.2,0.4-2.4,0.6-3.6c0-0.2,0.1-0.3,0.1-0.5c0.6-3.7,1.4-7.3,2.4-11
				c0.8-2.9,1.7-6,2.7-9.1c0.3-1,0.7-2.1,1-3.2c3.6-10.8,8.2-22.6,13.3-34c3.6-8,7.4-15.8,11.3-23.1c0.5-0.9,0.9-1.7,1.4-2.6
				c0.7-1.3,1.5-2.7,2.2-4c0.1-0.2,0.2-0.4,0.3-0.6c0.9-1.5,1.7-3,2.6-4.4c0.3-0.5,0.6-1,0.9-1.5c0.8-1.3,1.6-2.7,2.4-3.9
				c1.3-2.1,2.6-4,3.8-5.9c0,0,6.1-9.1,12.3-14.8c0,0-15.8,32-15.2,88.5c0,0,20.4-51.6,36.5-75.2c15.9-23.3,34.8-44.6,57-62
				c52.6-41.3,117.1-54.1,180.8-68.7c52.7-12,106.6-26.9,148.6-60.9c-14.8,34.7-41.1,64.4-73.8,83.1c61.1-1.7,122.3,3.7,182.2,16
				l9.3,2.1l2.8,9.1c9.3,30.2,19.1,60.2,28.2,90.5h-55.3l-7.6,20.9h69c2.4,8.6,4.7,17.2,6.9,25.8c5.4,21,10.2,42.1,14.7,63.3
				c2.2,10.6,4.6,21.2,6.3,31.9c0.6,3.8,4.5,18.7,2.2,21.7c0,0.1-13.8,17.2-45,39.1c-23,16.1-48.3,28.7-73.1,41.7
				c-50,26-101.8,48.4-154.5,68.2c-105.6,39.7-214.6,69-323.8,96.7c-83.3,21.1-140.2,32.9-140.2,32.9c0,0-56.9-11.8-140.2-32.9
				c-109.2-27.7-218.3-57-323.8-96.7c-52.7-19.8-104.5-42.2-154.5-68.2c-24.9-13-50.2-25.6-73.1-41.7c-31.2-21.9-45-39.1-45-39.1
				c0-23.7,20.6-110.1,20.6-110.1h-51.8c-14.2,52.1-23.3,105.2-27.4,159c188.4,86.4,381,165.3,581,220.7c0,0,214.2,63.8,214.2,63.8
				l214.2-63.8c200-55.4,392.6-134.3,581-220.7c-5-65.1-17.9-128.9-35.3-191.6h54.5v-20.9h-60.5c-20.4-69.7-45.7-138.2-71-205.8
				h45.6v-59.8h-68c-1.4-3.7-2.7-7-3.8-10.1h24.5v-15.3h-30.2h-0.2c0.7,2,2.8,7.4,5.8,15.3h-0.1c0,0-122.7,0-122.7,0v-15.3
				c0,0,117.3,0,117.3,0c0,0,0,0,0,0c-0.2-0.5-0.3-0.8-0.3-0.8c-7.3-24.2-5.9-48.4-1.7-73c17.5-101,68.4-186.9,116.1-276h87.6v-15.3
				h-79.4l-8.2,15.3L1568.1,627.1z M385.9,1029.8H241.8l5.5-15.3l138.6,0V1029.8z M303.1,342.6l1-51c12.5,5.9,24.6,11.8,36.4,17.5
				c308.1,149.8,358.4,233.5,358.4,233.5l2.5,3.4C515.6,612.6,394,817.2,394,817.2C330.2,663.8,302.7,506.3,303.1,342.6z
				 M785.7,1084.3c-8.6-3.7-19.9-6.6-26.9-7.4c-21-2.5-41.5-1.9-62.5,1.3c-26.5,4.1-53.1,3.1-78.8-5.1c-26.3-8.4-42.3-23.7-55.2-42
				c-24.9-35.2-53.9-35.6-53.9-35.6c9.3-7.1,23-11.3,35.3-11.9c-21.7-13-49.8-11.9-76.8-11.3C466.8,972.3,683.4,910.7,785.7,1084.3z
				 M462.9,902.4c0,0,7.8-167.9,129.7-95.4c121.9,72.6,216.9,208.3,216.9,208.3C472.3,758.7,462.9,902.4,462.9,902.4z M979.2,1604.2
				c0,0-25.7,35.9-64.7,35v0c-0.1,0-0.2,0-0.3,0c-0.1,0-0.2,0-0.3,0v0c-39,0.9-64.7-35-64.7-35c27-7.3,57.4-7.3,64.3-7.1v0
				c0,0,0.3,0,0.7,0c0.5,0,0.7,0,0.7,0v0C921.8,1596.9,952.2,1596.8,979.2,1604.2z M1667.8,1267.8c2,7,4,13.9,5.9,20.9h-52.8
				c-2-7-4-13.9-6.1-20.9H1667.8z M1507,1002.2h67.5l22.4,59.5l-89.9,0V1002.2z M1212.4,1077.1c-28.3,7.3-57.4,8-85.8,3
				c-32-5.6-62.9-18.6-90.4-37.7c89.9,48,296.7-51.5,296.7-51.5C1299.5,1037.9,1257.1,1065.6,1212.4,1077.1z M1307.4,882.3
				c64.1-26.4,133.4,48.7,133.4,48.7c-44.3-27.4-183.6,28-263.8,59.8c-106.3,42.2-160.2,14.8-160.2,14.8
				C1077.5,1003.4,1307.4,882.3,1307.4,882.3z M1692.6,403.5l11.3,30.7h-6.7l0,0h-1.7l-11.2-30.7h2.5 M1714.3,434.2L1714.3,434.2
				l-3.7,0l-11.2-30.7h4.5l0,0h20.2l11.3,30.7H1714.3z M1745.7,434.2L1745.7,434.2l-4.4,0l-11.2-30.7h5.2l0,0h20.2l11.3,30.7H1745.7
				z"/>
		</g>
	</g>
</g>
</svg>
